<svg id="visual" viewBox="0 0 900 600" width="900" height="600" xmlns="http://www.w3.org/2000/svg" xmlns:xlink="http://www.w3.org/1999/xlink" version="1.1"><g stroke-width="1" stroke-linejoin="bevel"><path d="M464 299.1L455 411.6L519 294.1Z" fill="#297ea6" stroke="#297ea6"></path><path d="M455 411.6L537 299.9L519 294.1Z" fill="#277297" stroke="#277297"></path><path d="M455 411.6L578 330.9L537 299.9Z" fill="#00101c" stroke="#00101c"></path><path d="M464 299.1L411 348.9L455 411.6Z" fill="#277297" stroke="#277297"></path><path d="M411 348.9L406 363.9L455 411.6Z" fill="#277297" stroke="#277297"></path><path d="M406 363.9L412 396.6L455 411.6Z" fill="#246688" stroke="#246688"></path><path d="M441 527.3L488 463.6L455 411.6Z" fill="#0c2435" stroke="#0c2435"></path><path d="M455 411.6L488 463.6L578 330.9Z" fill="#246688" stroke="#246688"></path><path d="M659 409.6L617 296.1L578 330.9Z" fill="#0c2435" stroke="#0c2435"></path><path d="M578 330.9L617 296.1L537 299.9Z" fill="#246688" stroke="#246688"></path><path d="M537 299.9L588 198.4L519 294.1Z" fill="#205a7a" stroke="#205a7a"></path><path d="M488 463.6L659 409.6L578 330.9Z" fill="#205a7a" stroke="#205a7a"></path><path d="M429 187.4L395 217.4L464 299.1Z" fill="#246688" stroke="#246688"></path><path d="M464 299.1L395 217.4L411 348.9Z" fill="#205a7a" stroke="#205a7a"></path><path d="M411 348.9L292 387.9L406 363.9Z" fill="#081a28" stroke="#081a28"></path><path d="M429 187.4L464 299.1L519 294.1Z" fill="#112e42" stroke="#112e42"></path><path d="M441 527.3L535 531.3L488 463.6Z" fill="#205a7a" stroke="#205a7a"></path><path d="M488 463.6L535 531.3L659 409.6Z" fill="#081a28" stroke="#081a28"></path><path d="M352 466.3L441 527.3L455 411.6Z" fill="#297ea6" stroke="#297ea6"></path><path d="M412 396.6L352 466.3L455 411.6Z" fill="#112e42" stroke="#112e42"></path><path d="M292 387.9L352 466.3L412 396.6Z" fill="#246688" stroke="#246688"></path><path d="M292 387.9L412 396.6L406 363.9Z" fill="#277297" stroke="#277297"></path><path d="M726 202.4L588 198.4L617 296.1Z" fill="#19435d" stroke="#19435d"></path><path d="M617 296.1L588 198.4L537 299.9Z" fill="#246688" stroke="#246688"></path><path d="M500 157.4L429 187.4L519 294.1Z" fill="#205a7a" stroke="#205a7a"></path><path d="M257 288.1L327 262.1L220 188.4Z" fill="#112e42" stroke="#112e42"></path><path d="M395 217.4L327 262.1L411 348.9Z" fill="#297ea6" stroke="#297ea6"></path><path d="M588 198.4L500 157.4L519 294.1Z" fill="#1d4e6b" stroke="#1d4e6b"></path><path d="M327 262.1L292 387.9L411 348.9Z" fill="#277297" stroke="#277297"></path><path d="M659 409.6L706 309.1L617 296.1Z" fill="#00101c" stroke="#00101c"></path><path d="M578 600L581 560.3L535 531.3Z" fill="#297ea6" stroke="#297ea6"></path><path d="M535 531.3L581 560.3L659 409.6Z" fill="#081a28" stroke="#081a28"></path><path d="M745 445.6L731 392.9L659 409.6Z" fill="#246688" stroke="#246688"></path><path d="M659 409.6L731 392.9L706 309.1Z" fill="#112e42" stroke="#112e42"></path><path d="M442 600L490 600L441 527.3Z" fill="#112e42" stroke="#112e42"></path><path d="M441 527.3L490 600L535 531.3Z" fill="#081a28" stroke="#081a28"></path><path d="M357 600L442 600L441 527.3Z" fill="#00101c" stroke="#00101c"></path><path d="M357 600L441 527.3L352 466.3Z" fill="#0c2435" stroke="#0c2435"></path><path d="M304 118.7L327 262.1L395 217.4Z" fill="#112e42" stroke="#112e42"></path><path d="M327 262.1L257 288.1L292 387.9Z" fill="#0c2435" stroke="#0c2435"></path><path d="M490 600L578 600L535 531.3Z" fill="#277297" stroke="#277297"></path><path d="M712 561.3L745 445.6L659 409.6Z" fill="#19435d" stroke="#19435d"></path><path d="M712 561.3L659 409.6L581 560.3Z" fill="#112e42" stroke="#112e42"></path><path d="M706 309.1L726 202.4L617 296.1Z" fill="#1d4e6b" stroke="#1d4e6b"></path><path d="M588 198.4L612 88.7L500 157.4Z" fill="#15384f" stroke="#15384f"></path><path d="M802 299.9L726 202.4L706 309.1Z" fill="#1d4e6b" stroke="#1d4e6b"></path><path d="M802 299.9L706 309.1L731 392.9Z" fill="#0c2435" stroke="#0c2435"></path><path d="M286 557.3L352 466.3L213 449.6Z" fill="#277297" stroke="#277297"></path><path d="M286 557.3L357 600L352 466.3Z" fill="#112e42" stroke="#112e42"></path><path d="M257 288.1L218 378.6L292 387.9Z" fill="#00101c" stroke="#00101c"></path><path d="M213 449.6L352 466.3L292 387.9Z" fill="#081a28" stroke="#081a28"></path><path d="M726 202.4L612 88.7L588 198.4Z" fill="#112e42" stroke="#112e42"></path><path d="M317 64.7L304 118.7L429 187.4Z" fill="#297ea6" stroke="#297ea6"></path><path d="M578 600L712 561.3L581 560.3Z" fill="#0c2435" stroke="#0c2435"></path><path d="M218 378.6L213 449.6L292 387.9Z" fill="#081a28" stroke="#081a28"></path><path d="M438 33.7L429 187.4L500 157.4Z" fill="#246688" stroke="#246688"></path><path d="M429 187.4L304 118.7L395 217.4Z" fill="#277297" stroke="#277297"></path><path d="M188 300.1L183 364.9L218 378.6Z" fill="#0c2435" stroke="#0c2435"></path><path d="M850 440.6L731 392.9L745 445.6Z" fill="#1d4e6b" stroke="#1d4e6b"></path><path d="M850 440.6L802 299.9L731 392.9Z" fill="#081a28" stroke="#081a28"></path><path d="M188 300.1L218 378.6L257 288.1Z" fill="#081a28" stroke="#081a28"></path><path d="M218 378.6L183 364.9L213 449.6Z" fill="#081a28" stroke="#081a28"></path><path d="M216 188.4L188 300.1L257 288.1Z" fill="#297ea6" stroke="#297ea6"></path><path d="M612 88.7L570 47.7L500 157.4Z" fill="#1d4e6b" stroke="#1d4e6b"></path><path d="M304 118.7L220 188.4L327 262.1Z" fill="#297ea6" stroke="#297ea6"></path><path d="M211 56.7L216 188.4L220 188.4Z" fill="#1d4e6b" stroke="#1d4e6b"></path><path d="M220 188.4L216 188.4L257 288.1Z" fill="#15384f" stroke="#15384f"></path><path d="M570 47.7L438 33.7L500 157.4Z" fill="#15384f" stroke="#15384f"></path><path d="M578 600L737 600L712 561.3Z" fill="#297ea6" stroke="#297ea6"></path><path d="M843 497.3L850 440.6L745 445.6Z" fill="#15384f" stroke="#15384f"></path><path d="M438 33.7L317 64.7L429 187.4Z" fill="#112e42" stroke="#112e42"></path><path d="M304 118.7L211 56.7L220 188.4Z" fill="#1d4e6b" stroke="#1d4e6b"></path><path d="M213 449.6L236 600L286 557.3Z" fill="#00101c" stroke="#00101c"></path><path d="M286 557.3L236 600L357 600Z" fill="#112e42" stroke="#112e42"></path><path d="M192 600L236 600L213 449.6Z" fill="#205a7a" stroke="#205a7a"></path><path d="M76 478.6L159 471.3L183 364.9Z" fill="#081a28" stroke="#081a28"></path><path d="M183 364.9L159 471.3L213 449.6Z" fill="#246688" stroke="#246688"></path><path d="M570 47.7L491 0L438 33.7Z" fill="#112e42" stroke="#112e42"></path><path d="M438 33.7L401 0L317 64.7Z" fill="#15384f" stroke="#15384f"></path><path d="M675 0L523 0L570 47.7Z" fill="#277297" stroke="#277297"></path><path d="M570 47.7L523 0L491 0Z" fill="#081a28" stroke="#081a28"></path><path d="M843 497.3L745 445.6L712 561.3Z" fill="#1d4e6b" stroke="#1d4e6b"></path><path d="M900 372.9L847 244.1L802 299.9Z" fill="#0c2435" stroke="#0c2435"></path><path d="M802 299.9L847 244.1L726 202.4Z" fill="#112e42" stroke="#112e42"></path><path d="M726 202.4L765 99.7L612 88.7Z" fill="#112e42" stroke="#112e42"></path><path d="M612 88.7L675 0L570 47.7Z" fill="#15384f" stroke="#15384f"></path><path d="M491 0L401 0L438 33.7Z" fill="#19435d" stroke="#19435d"></path><path d="M778 105.7L765 99.7L726 202.4Z" fill="#0c2435" stroke="#0c2435"></path><path d="M737 600L843 497.3L712 561.3Z" fill="#0c2435" stroke="#0c2435"></path><path d="M849 159.4L778 105.7L726 202.4Z" fill="#1d4e6b" stroke="#1d4e6b"></path><path d="M159 471.3L192 600L213 449.6Z" fill="#297ea6" stroke="#297ea6"></path><path d="M689 0L612 88.7L765 99.7Z" fill="#19435d" stroke="#19435d"></path><path d="M689 0L675 0L612 88.7Z" fill="#15384f" stroke="#15384f"></path><path d="M900 468.3L900 372.9L850 440.6Z" fill="#19435d" stroke="#19435d"></path><path d="M850 440.6L900 372.9L802 299.9Z" fill="#205a7a" stroke="#205a7a"></path><path d="M900 206.1L849 159.4L847 244.1Z" fill="#205a7a" stroke="#205a7a"></path><path d="M847 244.1L849 159.4L726 202.4Z" fill="#297ea6" stroke="#297ea6"></path><path d="M760 0L689 0L765 99.7Z" fill="#15384f" stroke="#15384f"></path><path d="M760 0L765 99.7L778 105.7Z" fill="#1d4e6b" stroke="#1d4e6b"></path><path d="M737 600L832 600L843 497.3Z" fill="#15384f" stroke="#15384f"></path><path d="M900 471.6L900 468.3L850 440.6Z" fill="#15384f" stroke="#15384f"></path><path d="M283 0L211 56.7L317 64.7Z" fill="#081a28" stroke="#081a28"></path><path d="M317 64.7L211 56.7L304 118.7Z" fill="#0c2435" stroke="#0c2435"></path><path d="M43 308.1L49 344.9L188 300.1Z" fill="#297ea6" stroke="#297ea6"></path><path d="M49 344.9L76 478.6L183 364.9Z" fill="#00101c" stroke="#00101c"></path><path d="M401 0L283 0L317 64.7Z" fill="#277297" stroke="#277297"></path><path d="M900 471.6L850 440.6L843 497.3Z" fill="#205a7a" stroke="#205a7a"></path><path d="M900 600L900 471.6L843 497.3Z" fill="#246688" stroke="#246688"></path><path d="M900 372.9L900 206.1L847 244.1Z" fill="#19435d" stroke="#19435d"></path><path d="M900 80.7L760 0L778 105.7Z" fill="#112e42" stroke="#112e42"></path><path d="M900 206.1L900 190.4L849 159.4Z" fill="#112e42" stroke="#112e42"></path><path d="M49 344.9L183 364.9L188 300.1Z" fill="#081a28" stroke="#081a28"></path><path d="M159 471.3L67 548.3L192 600Z" fill="#277297" stroke="#277297"></path><path d="M900 80.7L778 105.7L849 159.4Z" fill="#246688" stroke="#246688"></path><path d="M43 308.1L188 300.1L50 194.4Z" fill="#15384f" stroke="#15384f"></path><path d="M50 194.4L188 300.1L216 188.4Z" fill="#00101c" stroke="#00101c"></path><path d="M832 600L900 600L843 497.3Z" fill="#112e42" stroke="#112e42"></path><path d="M0 559.3L67 548.3L76 478.6Z" fill="#15384f" stroke="#15384f"></path><path d="M76 478.6L67 548.3L159 471.3Z" fill="#1d4e6b" stroke="#1d4e6b"></path><path d="M0 427.6L76 478.6L49 344.9Z" fill="#0c2435" stroke="#0c2435"></path><path d="M102 62.7L50 194.4L216 188.4Z" fill="#246688" stroke="#246688"></path><path d="M67 548.3L78 600L192 600Z" fill="#277297" stroke="#277297"></path><path d="M900 190.4L900 80.7L849 159.4Z" fill="#00101c" stroke="#00101c"></path><path d="M130 0L102 62.7L211 56.7Z" fill="#0c2435" stroke="#0c2435"></path><path d="M211 56.7L102 62.7L216 188.4Z" fill="#297ea6" stroke="#297ea6"></path><path d="M0 274.1L43 308.1L50 194.4Z" fill="#1d4e6b" stroke="#1d4e6b"></path><path d="M0 274.1L0 308.9L43 308.1Z" fill="#112e42" stroke="#112e42"></path><path d="M43 308.1L0 308.9L49 344.9Z" fill="#081a28" stroke="#081a28"></path><path d="M67 548.3L0 600L78 600Z" fill="#081a28" stroke="#081a28"></path><path d="M0 308.9L0 427.6L49 344.9Z" fill="#112e42" stroke="#112e42"></path><path d="M0 205.4L0 274.1L50 194.4Z" fill="#205a7a" stroke="#205a7a"></path><path d="M283 0L130 0L211 56.7Z" fill="#246688" stroke="#246688"></path><path d="M0 67.7L0 205.4L50 194.4Z" fill="#19435d" stroke="#19435d"></path><path d="M0 67.7L50 194.4L102 62.7Z" fill="#205a7a" stroke="#205a7a"></path><path d="M130 0L101 0L102 62.7Z" fill="#1d4e6b" stroke="#1d4e6b"></path><path d="M0 427.6L0 559.3L76 478.6Z" fill="#00101c" stroke="#00101c"></path><path d="M900 80.7L900 0L760 0Z" fill="#19435d" stroke="#19435d"></path><path d="M0 559.3L0 600L67 548.3Z" fill="#0c2435" stroke="#0c2435"></path><path d="M0 0L0 67.7L102 62.7Z" fill="#112e42" stroke="#112e42"></path><path d="M101 0L0 0L102 62.7Z" fill="#1d4e6b" stroke="#1d4e6b"></path></g></svg>